<svg xmlns:xlink="http://www.w3.org/1999/xlink" xmlns="http://www.w3.org/2000/svg" width="601" height="166" viewBox="0 0 601 166" fill="none">
<path d="M584.335 135.356C593.654 135.356 600.5 128.276 600.5 119.332C600.5 110.389 593.654 103.309 584.335 103.309C575.016 103.309 567.98 110.389 567.98 119.332C567.98 128.276 575.016 135.356 584.335 135.356ZM507.885 117.842C497.425 117.842 490.959 112.625 490.959 104.24C490.959 96.6013 496.284 92.1296 505.602 92.1296H519.105C523.669 92.1296 528.423 91.3843 530.896 89.3348V95.6696C530.896 108.898 521.767 117.842 507.885 117.842ZM499.327 135.728C514.351 135.728 526.332 129.766 531.656 119.519C531.656 125.295 532.037 129.394 532.797 133.12H557.901C556.569 127.344 555.999 119.332 555.999 109.085V69.2122C555.999 46.4811 540.785 33.8113 512.829 33.8113C486.014 33.8113 468.899 45.3632 467.187 64.7405L491.72 66.6037C492.861 57.2877 500.658 51.6981 512.068 51.6981C523.669 51.6981 531.086 57.8467 531.086 67.7216C531.086 73.3112 528.233 76.106 522.148 76.106H499.897C477.266 76.106 463.954 85.981 463.954 104.613C463.954 123.431 478.027 135.728 499.327 135.728ZM423.448 133.12H449.693V2.69585H423.448V133.12ZM377.426 133.12H403.67V2.69585H377.426V133.12ZM288.802 74.9881C290.324 61.7594 299.262 53.5613 312.955 53.5613C327.218 53.5613 335.966 62.8773 336.346 74.9881H288.802ZM262.368 84.8631C262.368 115.606 283.477 135.542 313.905 135.542C338.438 135.542 355.554 123.431 361.449 103.681L336.917 101.632C333.303 110.948 324.936 115.42 314.476 115.42C299.452 115.42 289.183 105.731 288.612 91.3843H362.971C365.443 57.474 345.475 33.8113 313.525 33.8113C283.668 33.8113 262.368 54.1202 262.368 84.8631ZM200.182 54.3066C215.206 54.3066 224.145 65.8584 224.145 84.6768C224.145 103.495 215.206 115.047 200.373 115.047C185.349 115.047 176.03 103.122 176.03 84.6768C176.03 66.0447 185.349 54.3066 200.182 54.3066ZM209.121 33.9977C194.287 33.9977 181.926 41.0778 177.361 51.8844V36.2335H151.117V165.726H177.361V117.469C181.926 128.276 194.287 135.17 209.121 135.17C234.034 135.17 251.34 115.233 251.34 84.6768C251.34 54.1203 234.034 33.9977 209.121 33.9977ZM135.334 67.7216C135.334 27.4765 108.329 0.273682 67.8221 0.273682C27.1246 0.273682 0.5 27.4765 0.5 67.7216C0.5 108.153 27.1246 135.542 67.8221 135.542C108.52 135.542 135.334 107.967 135.334 67.7216ZM29.2165 67.7216C29.2165 39.2146 44.4305 22.6321 67.8221 22.6321C91.4039 22.6321 106.428 39.2146 106.428 67.7216C106.428 96.2286 91.4039 112.997 67.8221 112.997C44.4305 112.997 29.2165 96.2286 29.2165 67.7216Z" fill="#042B0B"/>
</svg>