<?xml version="1.0" encoding="utf-8"?>
<!-- Generator: Adobe Illustrator 12.0.0, SVG Export Plug-In  -->
<!DOCTYPE svg PUBLIC "-//W3C//DTD SVG 1.1//EN" "http://www.w3.org/Graphics/SVG/1.1/DTD/svg11.dtd" [
	<!ENTITY ns_flows "http://ns.adobe.com/Flows/1.0/">
	<!ENTITY ns_svg "http://www.w3.org/2000/svg">
	<!ENTITY ns_xlink "http://www.w3.org/1999/xlink">
]>
<svg  version="1.1" xmlns="&ns_svg;" xmlns:xlink="&ns_xlink;" xmlns:a="http://ns.adobe.com/AdobeSVGViewerExtensions/3.0/"
	 width="160" height="68" viewBox="-0.011 -0.817 160 68" enable-background="new -0.011 -0.817 160 68" xml:space="preserve">
<defs>
</defs>
<path fill="#AD9961" d="M89.995,18.553c0.57-1.653,3.13-1.615,4.23-2.341c0.761-0.504,1.744-1.028,1.777-3.455
	c0.028-2.084,0.973-2.425,1.549-2.614c0-0.589-1.097-0.403-1.841,0.218c1.073-2.67,3.339-0.436,3.339-0.436
	c-1.344-2.332-3.243-1.254-3.93-0.098c-0.688,1.162-0.181,3.79-1.6,4.438c-1.415,0.651-2.166-0.547-3.159-0.259
	c-1.449,0.421-1.492,2.342-2.943,1.717c1.111-0.712,1.066-1.382,1.814-2.201c1.546-1.699,4.089,0.168,4.648-4.645l0.259,0.91
	c2.68-3.613,5.774-0.442,5.319,0.544c-3.715-0.688-2.938,2.269-3.295,4.26h2.714L89.995,18.553 M92.545,14.906
	c-2.625-1.075-4.176,1.403-4.176,2.145c0.63-0.308,1.677-1.446,2.064-1.7C91.146,14.881,92.256,15.169,92.545,14.906 M95.038,13.594
	c0.42,2.676-4.318,2.52-5.337,4.33C89.658,14.264,94.486,16.167,95.038,13.594 M89.775,19.42c1.131-1.496,1.976-0.237,2.903-0.867
	c0.925-0.629,1.992-2.569,4.186-1.593l1.175-1.027l-0.785,1.275c2.282,1.503,3.603,1.365,3.378-1.465
	c2.951,1.721,1.325,5.685-0.904,5.664c-1.322-0.012-1.77-0.682-2.531-0.975c-0.541-0.208-0.967,0.207-1.471,0.737L97.847,22
	l-2.565-0.372c-0.779,0.765-1.944,1.447-3.576,0.711l0.322,0.608h9.015l-6.171,2.755c1.649,0.343,3.676-1.685,6.014-0.281
	c2.242,1.353,1.229,4.43,0.289,4.419c-0.84-0.009,0.768-2.761-1.527-2.708c-0.84,0.022-1.514,0.716-2.334,1.361l0.757,1.875
	l-1.244-1.511c-0.662,0.477-1.371,0.836-2.183,0.733l4.269,2.521h-2.909c-0.033,0.718,0.033,1.213,0.322,1.834l0.293-0.124
	c0.223,0.469,1.538,1.255,3.381,0.945c-0.689,2.656-4.524,1.909-5.258,1.16l0.044,0.954c-1.681-4.147-2.972-4.396-5.469-4.396
	l5.813,5.891l-1.389-0.289c0.418,1.65-1.558,4.537-2.974,4.695c-0.548,0.066,1.003-1.087,1.003-2.736
	c0-1.647-1.839-2.152-2.619-2.799c-1.425-1.185-2.001-4.482-2.549-5.414c1,0.527,1.841,3.36,2.714,4.354
	c0.869,0.997,3.066,1.993,3.066,3.55c0,1.554-0.579,1.834-0.645,2.02c0.579,0,2.392-3.184,0.678-4.707
	c-0.853-0.759-1.969-0.974-2.844-1.701c-1.15-0.956-1.765-3.005-2.411-3.61c-0.624-0.577-2.698-1.536-2.305-4.71
	c-1.262,3.411,0.497,3.922,0.881,6.244c0.389,2.324,1.637,4.814,2.973,5.146c-0.232,0.063-0.458,0.092-0.661,0.091l-0.287,2.189
	l-0.094-2.226c-2.839-0.547-2.778-7.204-4.472-8.063l4.134,11.908l-2.947-1.881c-0.48,1.94,1.651,2.039,1.449,3.798
	c-0.236,2.002-2.546,1.819-2.504,1.361c0.026-0.29,0.91,0.02,0.91-0.464c0-0.456-1.425-0.739-2.034-1.442
	c-0.37-0.437-0.687-0.791-0.82-2.451l-0.901,1.195c0,0,1.098-2.855,1.248-3.601c0.147-0.732-1.886-1.856-2.167-3.32v8.298
	l-2.407-2.967c-0.41,3.255-4.996,3.04-5.285,2.703c3.33-2.474,1.722-3.583,0.89-5.688l-1.756,1.058l1.527-1.735
	c-0.102-0.391-0.131-0.884-0.096-1.352c0.191-2.569,3.917-2.34,1.885-4.88l-6.033,9.707l0.561-5.227
	c-3.575,1.287-2.338,1.475-3.361,3.817c-0.833,1.911-2.537,1.393-3.051,0.579c-0.754-1.183,0.166-2.073,1.156-2.032
	c0.596-0.486-1.121-1.256-0.431-2.811c0.999-2.262,3.819-1.283,5.257-3.169l-3.533,0.38l3.945-1.099
	c0.275-0.65,0.447-1.523,0.451-2.719l-7.501,4.148l2.285-3.775c-4.187,3.471-5.199-0.884-7.193-0.539
	c0.519-2.324,2.453-0.997,3.318-0.997c0.86,0,2.11-1.534,2.541-1.864l-4.483-2.403h11.18c0.84,0,1.311-0.288,0.908-0.773
	c-0.533-0.633-2.595,0.119-4.935,0.291c-1.422,0.105-2.279-0.446-2.986-1.094l-1.968,0.596l1.671-0.884
	c-1.151-1.14-2.026-2.313-4.728-0.672c-0.842-2.179,1.184-4.043,2.992-4.087c2.586-0.063,3.08,2.969,5.084,1.908l-3.424-3.983
	l5.557,2.738l-0.709-2.113l-2.395-0.625l2.327,0.188c-0.647-2.178-3.085-1.785-4.086-2.85c-2.163-2.308,0.179-5.261,1.955-4.43
	c-1.229,2.614,1.032,3.731,2.907,3.358l-0.906-3.05l7.173,7.284c-1.642,1.246-3.479,0.143-4.381-2.553
	c-0.867-2.584-3.795-0.316-5.117-0.913c-0.044,1.534,2.584,0,2.972,3.111c0.256,2.034,1.746,3.887,3.945,3.384
	c-0.844,1.282-2.898-0.308-4.197,1.541c2.256-0.249,2.791,2.292,4.644,2.725c-1.382-0.789-1.528-2.731-2.92-3.044
	c0.854-0.186,1.538,0.199,2.372-0.08c0.867-0.29,1.294-0.876,1.234-1.731c0.896,0.361,0.98,1.214,0.563,1.771
	c-0.418,0.557-1.252,0.869-1.278,1.343c0,0,0.026-0.088,0.608-0.367c-0.435,0.58-0.153,1.375,0.323,1.893
	c-0.026-0.342-0.021-0.882,0.177-0.988c0.364,0.844,1.183,1.286,1.706,1.159c-0.952-1.019-0.297-1.884-0.297-1.884
	c-0.418-0.018-0.849,0.59-0.849,0.59s-0.28-0.957,0.726-1.364c-0.074-0.146-0.012-0.316-0.012-0.316
	c0.823,0.837,2.279,0.797,2.689,1.073c0,0-2.137-0.305-1.871,0.869c0.234,1.101,3.555,0.587,2.92-3.007c0,0,0.568-0.06,0.79,0.149
	c0.209,0.204-0.046,0.824-0.046,0.824l0.427,0.194c0,0-0.228,1.691-0.125,2.012c0.058,0.188,0.82,0.206,0.95,0.21
	c0.159,0.007,0.059,0.18-0.02,0.18c-0.069,0-1.193,0-1.193,0c-0.18,0.006-0.703,0.631-0.209,0.749c0,0,0.624,0.156,1.251,0.156
	c0.632,0,1.245-0.156,1.245-0.156s-0.102,0.498-1.254,0.498c-1.166,0-1.62-0.196-1.62-0.196c-0.257,0.723,1.259,1.447,1.426,1.498
	c0.144,0.049,0.396,0.032,0.45-0.002c0.051-0.033,1.097-0.877,1.097-0.877l-0.317,0.515c1.42-0.331,1.206-1.047,0.72-1.208
	c-0.024-0.323,0.815-0.265,0.787,0.353c-0.037,0.786-2.044,1.225-2.286,1.755c-0.165,0.34,0.239,1.438,0.584,1.542
	c0.334,0.097,1.116,0.085,1.515-0.128c0.115-0.064,1.185-2.073,1.185-2.571c0-0.494-1.1-2.926-1.1-2.926
	c0.203-0.625,1.155-0.462,2.016-1.014c-1.406,1.456-0.456,1.642,0.563,1.683c-0.773,0.659-1.31,1.086-1.007,2.104
	c4.518,0.994,2.771,7.355,6.052,8.476c-2.601,0.393-2.901-3.091-3.138-4.608c-0.098,1.617-0.212,2.979,1.024,4.278
	c1.066,1.117,2.69,0.485,4.2,0.495c2.681,0.023,1.915,2.916,4.156,3.694c-1.251-1.054-0.455-2.317-2.302-4.124
	c-0.94-0.92-2.993,0.015-4.536-1.744c-1.549-1.76-2.03-5.34-4.198-6.728c2.479,0.628,3.405,4.719,4.67,6.086
	c1.257,1.362,4.007,0.939,4.917,1.901c1.653,1.442-0.038,4.33,3.39,4.856V35.68c0.646,0.125,1.68-0.123,1.594-0.664
	c-0.519,0.168-1.725,0.208-2.498-0.414l0.258,0.539c-2.073-0.556-1.261-3.776-2.492-4.859c-1.054-0.926-2.964-0.419-4.566-1.653
	c-1.589-1.218-2.233-4.44-5.166-6.427c3.984-1.129,5.298,6.27,9.112,6.27c1.906,0,3.286-2.806,4.999-2.806
	c1.217,0,2.152,0.666,2.356,1.759c0.217,1.141-0.211,2.043-0.211,2.043s0.579-0.621,0.579-1.731c0-1.835-1.453-2.563-2.853-2.563
	c-1.389,0-1.863,0.934-4,0.934c-2.747-0.062-3.479-5.021-6.599-5.311c1.626-1.363,3.186,1.104,4.659,1.078
	c1.068-0.018,1.551-0.841,2.134-2.614c0.581-1.773,1.942-0.747,2.844,0.094c0.899,0.839,2.236,0.899,3.013,0.216
	c-0.204,0.646-0.925,0.636-0.645,1.06c0.124,0.19,0.313,0.101,0.51-0.082c1.025-0.945,1.268-3.437,0.167-4.025
	c0.841,3.95-2.638,2.771-2.544,2.241c0.647,0.218,1.55,0.186,1.291-0.186c-2.488-0.034-2.573-1.682-4.218-1.526l0.488,0.313
	c-2.911,0-1.066,3.972-3.137,3.972c-1.12,0-1.854-1.261-3.264-1.364c1.624-1.418,3.254,2.282,3.711-0.551
	C92.308,20.47,91.455,18.868,89.775,19.42z M81.136,13.175c-1.868,0.853-1.96-1.842-1.452-2.415c0,0-0.338,1.418,0.907,1.93
	c-1.663-2.755,1.612-3.8,1.612-6c0-1.83-1.126-2.429-1.093-4.108c0.032-2.022,3.005-2.552,3.037-1.772
	c0.018,0.559-2.165,0.622-2.197,2.706c-0.037,1.961,2.151,2.428,2.097,4.325c-0.034,1.246-2.265,2.396-0.876,4.729l3.173-8.931
	l-2.431,2.738c-0.775-0.967-1.383-1.059-1.383-2.797c0-1.745,1.936-1.993,1.936-2.804c0-0.654-0.972-0.747-1.679-0.774
	C81.689-0.05,79.745,0.9,79.745,2.924c0,2.022,1.378,3.05,0.008,4.95L78.59,6.099l0.873,2.271c0,0-0.795,0.924-0.795,2.574
	C78.668,14.18,81.314,14.479,81.136,13.175z M81.448,5.659c0.867,2.738-1.984,3.47-2.223,5.278
	C79.055,8.751,81.787,7.712,81.448,5.659z M82.787,12.913c-0.853-0.84-0.479-2.35-0.479-2.35S80.96,12.255,82.787,12.913z
	 M86.373,18.663c0.192,0.419,0.974-0.52,2.15-0.159C87.96,18.117,86.275,18.119,86.373,18.663z M85.074,11.252
	c-0.433,1.172-1.635,1.503-2.217,2.515c0.316,0.018,2.062-0.382,2.708-1.472c0.625-1.056,0.01-4.128,2.009-4.881
	c2.084-0.786,4.271-1.947,1.802-4.462c3.785,0.959,1.659,4.993,1.208,5.582c-0.424,0.556-1.816,1.658-1.816,3.434
	c0,1.311-1.18,2.808-2.096,2.99c0.965,0.395,2.416-1.828,2.416-1.828l4.716-6.1L91.09,8.432c0,0,0.746-0.64,0.746-2.769
	c0-3.012-3.238-3.55-3.199-2.614c0.021,0.624,1.098,1.063,1.127,2.086c0.033,1.02-1.396,1.602-2.519,1.928l-0.5-1.68v1.889
	C84.912,8.218,85.53,10.02,85.074,11.252z M88.551,9.671c0.994-1.462,1.914-1.212,2.388-2.77c-0.672,1.243-2.169,1.498-2.857,2.521
	c-1.201,1.785,0.188,4.37-2.33,5.117C88.926,14.617,87.402,10.944,88.551,9.671z M90.434,13.69c1.037-0.266,1.674,0.642,2.479,0.402
	c0.447-0.132,0.46-0.643,0.107-0.776c0,0,1.363-1.415,0.904-2.198C92.803,13.399,90.647,13.316,90.434,13.69z M86.083,17.642
	c0.178,0.288,0.428-0.256,0.9-0.511C86.371,17.049,85.994,17.489,86.083,17.642z M94.451,27.694
	c1.357-0.033,2.432-1.369,3.198-1.859c-1.102,0.256-1.68,1.235-3.198,1.268c-2.488,0.051-3.782-6.971-8.015-5.54
	C90.799,21.905,90.704,27.778,94.451,27.694z M85.489,20.002c0.091,0.549,1.063-0.598,2.916,0.202
	C87.77,19.279,85.356,19.191,85.489,20.002z M81.709,12.905c-1.863-3.069,2.52-3.776,1.271-6.311
	C83.14,8.577,78.93,10.625,81.709,12.905z M71.971,16.786c-3.752,0.063-0.996-4.043-3.787-4.649c1.437,0.97,0.647,1.842,0.66,3.417
	C68.859,17.445,71.127,18.022,71.971,16.786z M72.592,15.572c-0.756-0.02-1.971-0.382-2.405-1.403
	C69.792,15.098,71.01,17.604,72.592,15.572z M88.214,36.811c-1.013-1.76-1.815-5.653-3.046-6.214
	c1.159,1.73,1.153,4.641,2.508,6.508c1.074,1.469,2.745,1.143,3.642,2.568C91.127,38.14,89.15,38.435,88.214,36.811z M81.962,23.927
	c-0.236,0.165-0.782,0.322-1.216,0.613c-0.04,0.072-0.123,0.341-0.217,0.402C80.97,25.035,81.921,24.396,81.962,23.927z
	 M93.388,22.253c0.976,0.119,4.156-2.981,3.129-3.423C95.489,18.386,95.426,21.653,93.388,22.253z M66.139,10.884
	c-2.358-0.555-2.476-2.425-1.887-3.45C62.289,7.278,62.188,11.765,66.139,10.884z M57.621,19.825c0,0,1.613-1.188,3.433-0.186
	C61.531,17.873,58.167,18.022,57.621,19.825z M66.321,19.275c-2.086,0.354-2.943-0.662-3.496-1.332
	c-0.336-0.402-0.648-0.8-1.297-0.909c-0.039-0.006-0.028,0.049-0.023,0.118c0.008,0.09,0.02,0.226-0.037,0.255
	c-0.041,0.021-0.137,0.002-0.362-0.201c-0.233-0.21-0.591-0.31-1.005-0.282c-0.36,0.022-0.721,0.143-0.971,0.32
	c-0.24,0.174-0.328,0.373-0.248,0.559c0.125,0.287,0.525,0.27,0.991,0.25c0.373-0.019,0.798-0.034,1.175,0.092
	c0.293,0.1,0.533,0.414,0.808,0.777C62.807,20.573,65.795,21.125,66.321,19.275z M67.528,21.201
	c-0.034-1.163-4.105-0.562-3.993,0.248C63.657,22.345,67.559,22.214,67.528,21.201z M67.893,24.023
	c1.309,0.464,3.978-0.747,3.554-1.217C71.014,22.329,70.084,24.055,67.893,24.023z M63.434,25.231
	c2.205-1.051,3.606,2.583,5.523,0.524c-2.217,0.695-2.505-1.377-4.475-1.147c1.119-1.08,2.47,0.539,3.936,0.539
	c1.463,0,2.631-0.376,2.766-1.465c-0.381,0.381-1.274,0.879-2.777,0.879C66.898,24.562,64.547,22.568,63.434,25.231z M59.603,28.289
	c0.899,0.557,2.45-0.066,1.821-1.063c-1.901,1.299-2.791-1.036-3.936,0.656C57.965,27.707,58.695,27.727,59.603,28.289z
	 M64.825,27.199c-1.982-0.932-2.493,2.23-4.727,1.797c-0.023,1.402,2.117,0.742,2.957,0.092
	C63.879,28.444,64.325,27.292,64.825,27.199z M70.523,25.218c-0.832,1.05-2.142,1.974-3.601,1.47
	c-1.457-0.504-2.951-1.995-3.867,0.185C64.994,25.127,68.258,30.308,70.523,25.218z M69.707,32.724
	c-0.313-0.321-0.84,0.396-1.534,0.805c-0.783,0.464-1.707,0.728-1.455,1.09c0.228,0.332,1.172,0.24,1.935-0.202
	C69.447,33.956,70.053,33.075,69.707,32.724z M63.801,35.243c0.482,0.682,1.789-1.026,3.543-1.628
	c1.809-0.621,2.229-2.513,2.192-3.313c-0.616,1.446-1.159,2.564-2.565,2.88C65.563,33.498,63.301,34.541,63.801,35.243z
	 M64.365,37.685c-0.19,1.17-0.787,1.278-0.878,1.23c-0.088-0.05-0.13-0.18-0.061-0.265c0.082-0.097,0.094-0.232-0.019-0.327
	c-0.112-0.093-0.946,0.154-0.796,0.982c0.076,0.405,0.482,0.822,1.115,0.741C64.359,39.972,65.053,39.027,64.365,37.685z
	 M73.68,25.035c-1.238,1.333-0.017,6.296-2.541,8.1c1.851-3.102,0.613-6.889,2.264-8.9c-2.075,1.578-1.473,5.93-2.178,7.082
	c-0.691-5.324,1.537-7.273,2.018-7.711c-4.188,3.095-1.727,7.286-2.904,9.44c-1.816,3.311-4.688,1.488-5.92,2.612
	c-1.092,0.997,1.467,2.161,0.271,3.971c0.727,0.216,0.823-2.715,1.473-3.144l-0.662,0.17C65.327,36.026,64.696,36,64.696,36
	c0.641-1.085,3.42,0.68,6.938-2.325C74.744,31.018,72.795,26.63,73.68,25.035z M77.84,26.486c-0.17,0-0.201,0.055-0.205,0.086
	c-0.01,0.062,0.082,0.132,0.199,0.163c0.012,0.002,1.141,0.27,1.809,0.234c0.664,0.035,1.781-0.232,1.793-0.234
	c0.129-0.031,0.209-0.102,0.202-0.163c-0.005-0.031-0.035-0.086-0.205-0.086c-0.033,0-1.183,0.034-1.79,0.034
	C79.031,26.521,77.872,26.486,77.84,26.486z M77.088,22.859c0.035,0.786,1.18,0.996,1.642,0.933
	c-1.427-0.325-1.343-1.124-0.855-1.285C77.897,22.184,77.059,22.242,77.088,22.859z M76.478,23.866
	c0.04,0.307,1.375,0.817,1.375,0.817s-0.331,0.255-1.019,0.009c0.352,0.611,1.23,0.6,1.23,0.6s-0.066,0.364-1.026,0.109
	c0.237,0.682,1.257,0.852,1.591,0.755c0.346-0.104,0.74-1.202,0.584-1.542C79.213,24.614,77.815,23.945,76.478,23.866z
	 M75.275,40.691c0-1.789-1.234-2.261-1.234-4.426c0-2.362,2.909-2.323,2.909-4.193s-2.509-2.655-2.509-6.251
	c-0.646,4.225,1.784,4.664,1.784,6.324c0,1.658-2.795,1.205-2.795,4.12c0,1.713,1.191,2.617,1.191,4.445c0,1.83-1.18,2.32-1.18,2.32
	C73.889,43.089,75.275,42.682,75.275,40.691z M77.262,28.094c1.012,1.743,1.578,2.753,1.158,4.197
	c-0.422,1.441-1.928,2.169-2.349,3.875c-0.306,1.235,0.312,2.725,0.062,3.76c0.025-0.938-1.134-2.258-0.791-3.858
	c0.344-1.6,2.811-2.461,2.811-4.191c0-1.731-1.84-3.307-2.352-4.709c-0.16,1.68,1.58,2.84,1.58,4.729
	c0,1.89-2.692,2.341-2.692,4.409c0,1.652,0.963,2.807,0.963,4.406c0,1.132-0.825,2.26-0.825,2.26c3.195-1.731,1.379-3.956,1.959-6.7
	c0.362-1.695,1.727-2.244,2.278-3.631C79.539,31.431,79.129,29.376,77.262,28.094z M79.903,30.387
	c0.076-1.181-0.79-2.452-1.112-2.145C78.471,28.551,79.758,29.364,79.903,30.387z M80.974,36.472
	c-1.589-3.475,1.499-5.034-0.806-7.705C81.746,31.896,78.658,33.363,80.974,36.472z M82.68,42.896
	c0.401,2.055,2.672,0.539,2.086,2.145C86.074,43.248,83.316,44.084,82.68,42.896z M82.815,34.77
	c-0.675-1.319,1.044-5.538-0.675-6.947c1.352,2.784-1.367,5.635,0.275,8.102c-2.276-1.68,0.999-5.722-1.255-7.628
	c1.276,2.272-0.541,4.318-0.202,6.436c0.384,2.41,1.953,2.29,2.058,4.051c0.104,1.765-0.997,2.486-0.224,3.664
	c0.762,1.157,3.102,0.718,2.619,2.2c0.784-1.456-1.088-1.644-1.4-3.255c-0.3-1.557,1.184-2.661,0.9-3.789
	C84.623,36.474,83.477,36.089,82.815,34.77z M86.367,30.42c-0.892-1.529,0.431-3.654-1.222-5.069
	C86.061,27.579,84.59,28.427,86.367,30.42z M92.296,32.524c-0.355,0.325,0.854,0.395,0.974,0.975
	C93.563,33.018,92.651,32.201,92.296,32.524z M100.847,26.91c-0.933-1.678-3.192-0.852-3.911,1.066
	c-0.054,0.146-0.016,0.254,0.122,0.078c0.932-1.217,2.435-2.325,3.6-1.157C100.82,27.057,100.895,26.993,100.847,26.91z
	 M82.304,24.554c-0.046,0.111-0.347,0.232-0.988,0.478c-0.085,0.145-0.283,0.374-0.474,0.498
	C81.599,25.736,82.441,24.97,82.304,24.554z M83.739,39.025c0,0,1.806-1.073-0.154-2.142C84.161,37.972,83.739,39.025,83.739,39.025
	z M81.17,17.363c1.062,0,1.229-0.499,2.034-0.499c0.808,0,1.099,0.531,1.748,0.531c0.639,0,1.028-0.468,0.738-0.873
	c-0.419,0.686-1.158-0.249-1.715-0.249c-0.84,0-1.196,0.349-1.744,0.623c-0.609,0.312-1.197,0.013-0.967-0.342
	c-0.469-0.008-0.777-0.591,0.032-1.277C79.879,15.434,80.1,17.363,81.17,17.363z M76.238,13.013c-0.121,0-0.235-0.037-0.334-0.102
	c-0.558-0.352-0.856-1.32-1.423-1.219c0.335,0.257,0.179,1.168,0.648,1.677c0.223,0.249,0.549,0.406,0.911,0.406
	c0.665,0,1.21-0.543,1.21-1.213c0-0.391-0.184-0.739-0.472-0.96c-0.431-0.331-1.035-0.555-2.806-1.158
	c-4.229-1.436,2.098-5.72-0.812-8.122c1.597,3.453-3.08,5.501-0.653,7.924c1.063,1.095,3.355,0.926,4.15,1.71
	c0.115,0.112,0.191,0.271,0.191,0.443C76.85,12.738,76.578,13.013,76.238,13.013z M76.691,16.468c-0.8-0.01-1.728,0.886-1.884,0.309
	c-0.137-0.45,0.682-1.2,1.761-1.277c-0.908-0.251-2.409,0.586-2.677,1.51c-0.287,0.03-0.787-0.343-0.787-0.343
	c0.246,2.109,2.21,0.256,2.962,0.256c0.662,0,2.766,1.522,2.805-0.373C78.145,17.411,77.618,16.468,76.691,16.468z M70.365,8.301
	c0.103-1.399,0.997-2.638,0.983-4.068c-0.014-2.097-2.414-0.112-2.779-0.998c-0.962-2.339,6.143-3.524,6.053,0.625
	c-0.045,2.188-0.642,4.603,1.059,4.854l1.291-5.294l1.356,7.594c-1.235-1.565-3.544-0.961-4.1-3.462
	c-0.4-1.816,1.729-6.336-3.265-5.996c5.783,1.766-3.227,6.687,2.131,9.831c1.432,0.85,1.93,2.346,1.295,2.99
	c-0.09-2.13-2.207-2.396-2.977-3.301c-0.693-0.812-0.974-1.538-1.046-2.221l-1.992-0.954L70.365,8.301z M71.41,3.13
	c-0.438-1.479-2.845-0.821-2.358-0.23C69.28,3.178,70.225,2.354,71.41,3.13z M73.309,7.247c-2.356,4.458,5.804,2.431,4.74,6.224
	C79.758,9.37,72.418,11.653,73.309,7.247z M77.315,19.815c-0.682-0.373-2.367-0.458-3.094-1.501
	c0.771-0.356,1.564-1.032,2.236-0.896C77.971,17.721,77.463,19.582,77.315,19.815z M76.195,17.689
	c-0.915-0.191-1.207,1.138-0.515,1.402C75.721,18.607,76.141,17.796,76.195,17.689z M76.77,18.018
	c-0.049,0.12-0.258,0.904-0.565,1.229C76.77,19.467,77.434,18.528,76.77,18.018z M82.834,17.418c0.661-0.136,1.456,0.54,2.226,0.896
	c-0.724,1.043-2.41,1.128-3.082,1.501C81.818,19.582,81.31,17.721,82.834,17.418z M83.608,19.092
	c0.688-0.265,0.396-1.594-0.521-1.402C83.14,17.796,83.56,18.607,83.608,19.092z M83.077,19.247c-0.3-0.325-0.514-1.109-0.566-1.229
	C81.847,18.528,82.51,19.467,83.077,19.247z M90.999,5.722c-0.79,1.732-3.052,1.683-3.911,2.957
	c-1.506,2.231,0.486,4.521-2.667,5.308c3.738,0.041,1.804-3.146,3.167-4.981C88.951,7.167,90.5,7.847,90.999,5.722"/>
<path fill="#532409" d="M5.235,57.368H0v8.95h1.186v-3.77h4.049c2.302,0,3.474-0.873,3.474-2.598
	C8.709,58.239,7.537,57.368,5.235,57.368 M4.958,61.487H1.186v-3.059h3.772c1.884,0,2.617,0.431,2.617,1.537
	C7.575,61.063,6.842,61.487,4.958,61.487z"/>
<path fill="#532409" d="M19.596,57.368v5.26c0,1.894-1.181,2.897-3.417,2.897c-2.237,0-3.421-1.004-3.421-2.897v-5.26h-1.182v5.26
	c0,3.229,2.501,3.906,4.603,3.906c2.099,0,4.601-0.678,4.601-3.906v-5.26H19.596"/>
<path fill="#532409" d="M31.818,61.591c0.544-0.265,1.278-0.686,1.278-1.858c0-2.364-2.447-2.364-3.488-2.364h-5.171v8.95h4.576
	c1.531,0,4.38,0,4.38-2.537C33.393,62.361,32.394,61.845,31.818,61.591 M25.618,58.379h3.335c1.523,0,2.959,0,2.959,1.369
	c0,0.934-0.85,1.388-2.595,1.388h-3.699V58.379z M29.705,65.259h-4.087v-3.112h4.213c1.585,0,2.359,0.523,2.359,1.598
	C32.19,65.079,30.935,65.259,29.705,65.259z"/>
<polyline fill="#532409" points="37.04,57.368 37.04,66.318 44.919,66.318 44.919,65.259 38.221,65.259 38.221,57.368 37.04,57.368 
	"/>
<rect x="47.614" y="57.369" fill="#532409" width="1.185" height="8.949"/>
<path fill="#532409" d="M51.913,61.86c0,2.882,1.952,4.674,5.098,4.674c2.399,0,3.941-0.905,4.814-2.645l-1.041-0.51
	c-0.711,1.316-1.873,2.098-3.677,2.098c-2.462,0-3.99-1.335-3.99-3.48c0-2.475,1.385-3.837,3.894-3.837
	c1.99,0,3.141,0.831,3.651,2.073l1.029-0.471c-0.493-1.202-1.948-2.613-4.692-2.613C53.809,57.149,51.913,58.913,51.913,61.86"/>
<rect x="65.014" y="57.369" fill="#532409" width="1.178" height="8.949"/>
<path fill="#532409" d="M69.825,59.856c0,1.974,2.292,2.195,4.313,2.39c1.748,0.168,3.394,0.327,3.394,1.523
	c0,1.624-2.633,1.708-3.167,1.708c-2.995,0-3.709-1.499-4.004-1.824l-0.917,0.779c0.637,0.656,1.612,2.102,4.802,2.102
	c3.309,0,4.486-1.428,4.486-2.765c0-2.225-2.369-2.443-4.463-2.634c-1.743-0.158-3.239-0.295-3.239-1.45
	c0-1.326,1.862-1.525,2.967-1.525c2.453,0,3.282,1.19,3.616,1.566l0.869-0.699c-0.251-0.316-1.395-1.878-4.461-1.878
	C71.317,57.149,69.825,58.112,69.825,59.856"/>
<path fill="#532409" d="M88.208,61.854c0,2.883,1.945,4.675,5.092,4.675c1.982,0,3.063-0.737,3.616-1.346v1.132h1.06v-4.408h-4.67
	v1.061h3.574c-0.175,1.722-1.945,2.501-3.531,2.501c-2.432,0-3.944-1.333-3.944-3.48c0-2.474,1.367-3.834,3.842-3.834
	c0.86,0,2.861,0.229,3.614,2.027l0.996-0.526c-0.595-1.408-2.264-2.512-4.568-2.512C90.103,57.144,88.208,58.903,88.208,61.854"/>
<path fill="#532409" d="M107.986,62.368c1.285-0.092,2.738-0.779,2.738-2.478c0-1.673-1.188-2.522-3.53-2.522h-5.163v8.947h1.181
	v-3.913h3.394l2.844,3.913h1.461L107.986,62.368 M103.211,61.343v-2.915h3.736c1.588,0,2.645,0.247,2.645,1.453
	c0,1.214-1.057,1.462-2.645,1.462H103.211z"/>
<path fill="#532409" d="M118.713,57.149c-3.181,0-5.232,1.863-5.232,4.748c0,3.186,2.709,4.639,5.232,4.639
	c2.519,0,5.234-1.453,5.234-4.639C123.948,59.013,121.891,57.149,118.713,57.149 M118.713,65.475c-1.947,0-4.027-0.991-4.027-3.774
	c0-2.086,1.653-3.541,4.027-3.541c2.37,0,4.028,1.455,4.028,3.541C122.742,64.483,120.663,65.475,118.713,65.475z"/>
<path fill="#532409" d="M134.93,57.368v5.258c0,1.896-1.185,2.897-3.425,2.897c-2.238,0-3.417-1.001-3.417-2.897v-5.258h-1.183
	v5.258c0,3.229,2.506,3.91,4.6,3.91c2.1,0,4.601-0.682,4.601-3.91v-5.258H134.93"/>
<path fill="#532409" d="M144.746,57.368h-5.234v8.947h1.18v-3.769h4.055c2.299,0,3.463-0.873,3.463-2.596
	C148.208,58.238,147.044,57.368,144.746,57.368 M144.461,61.489h-3.771v-3.062h3.771c1.885,0,2.616,0.43,2.616,1.537
	C147.078,61.061,146.346,61.489,144.461,61.489z"/>
<polyline fill="#532409" points="150.94,57.368 150.94,66.318 159.123,66.318 159.123,65.259 152.122,65.259 152.122,62.169 
	157.851,62.169 157.851,61.124 152.122,61.124 152.122,58.428 158.976,58.428 158.976,57.368 150.94,57.368 "/>
</svg>
